<?xml version="1.0" encoding="UTF-8"?>
<svg viewBox="0 0 256 256" fill-rule="nonzero" version="1.1"
     xmlns="http://www.w3.org/2000/svg">
  <rect fill="#0000ff" width="256" height="256"/>
  <g fill="#ffffff" fill-rule="nonzero" transform="translate(3.3395039,-2.2263359)">
    <g transform="matrix(8.53333,0,0,8.53333,-1.113168,-3.3395039)">
      <path d="M 11,3 9.54297,10 H 14 V 3 Z m 5,0 v 7 h 4.45703 L 19,3 Z M 5.98438,11.98633 C 5.93594,11.98738 5.88763,11.99195 5.83985,12 H 3.00001 c -0.36064,-0.0051 -0.69608,0.18438 -0.87789,0.49587 -0.18181,0.3115 -0.18181,0.69676 0,1.00825 0.18181,0.3115 0.51725,0.50097 0.87789,0.49587 h 2 v 1 c -0.0051,0.36064 0.18438,0.69608 0.49587,0.87789 0.3115,0.18181 0.69676,0.18181 1.00825,0 C 6.81563,15.69607 7.0051,15.36063 7,14.99999 v -1 h 16 v 1 c -0.0051,0.36064 0.18438,0.69608 0.49587,0.87789 0.3115,0.18181 0.69676,0.18181 1.00825,0 0.3115,-0.18181 0.50097,-0.51725 0.49587,-0.87789 v -1 h 2 c 0.36064,0.0051 0.69608,-0.18438 0.87789,-0.49587 0.18181,-0.3115 0.18181,-0.69676 0,-1.00825 C 27.69607,12.18437 27.36063,11.9949 26.99999,12 h -2.8457 c -0.05615,-0.0094 -0.113,-0.01396 -0.16992,-0.01367 -0.04844,10e-4 -0.09675,0.0056 -0.14453,0.01367 H 6.15429 C 6.09814,11.99061 6.04129,11.98604 5.98437,11.98633 Z M 8.29297,16 6,27 h 8 V 16 Z M 16,16 v 11 h 8 L 21.70703,16 Z"/>
    </g>
  </g>
</svg>
