<svg width="512" height="512" viewBox="0 0 512 512" xmlns="http://www.w3.org/2000/svg">

  <!-- Background: transparent (was blue) -->

  <!-- Marker shape: blue fill (was white) -->
  <path d="M256 80
    C186 80 126 140 126 210
    C126 280 186 355 256 420
    C326 355 386 280 386 210
    C386 140 326 80 256 80 Z"
    fill="#005194"/>

  <!-- TOP SECTION: fill was blue→white, stroke was white→blue -->
  <g transform="translate(256,205) scale(0.52) translate(-372,-340)" stroke="#005194" fill="white" stroke-linecap="round" stroke-linejoin="round">
    <path d="m 266.42366,212.10296 214.40011,0 c 0,0 22.48143,15.20157 31.95271,25.64682 9.47129,10.44526 18.49346,24.48925 24.80002,35.83524 6.30656,11.34599 11.41582,21.50855 15.76495,34.6827 4.34913,13.17415 8.33496,26.90043 9.45883,44.14119 1.12387,17.24076 -0.50993,40.83133 -4.72941,58.32944 -4.21948,17.4981 -12.05744,33.4219 -18.91765,45.71768 -6.86021,12.29577 -11.88517,18.52633 -20.49414,28.37648 -8.60897,9.85015 -19.92154,20.95923 -31.52943,29.95295 -11.60789,8.99371 -23.82267,17.22465 -37.8353,23.64707 -14.01263,6.42242 -45.71768,14.18825 -45.71768,14.18825 0,0 -42.93148,5.75825 -77.2471,-6.30588 -13.63978,-4.79525 -22.57777,-6.42989 -37.83531,-14.18825 -19.11323,-9.71895 -37.52194,-22.04048 -52.02356,-37.83531 -19.93057,-21.70791 -35.90374,-47.88308 -45.71767,-75.67063 -7.77117,-22.00358 -10.31615,-46.04493 -9.45882,-69.36474 0.65128,-17.71506 4.79457,-35.43136 11.03529,-52.02355 5.30073,-14.09303 14.29531,-27.64889 22.07061,-39.41179 7.60607,-11.50687 20.999,-24.12154 29.95295,-31.52942 8.95395,-7.40788 22.0706,-14.18825 22.0706,-14.18825 z"
      stroke-width="28" fill="white"/>
    <ellipse cx="425.64734" cy="446.20895" rx="33.477383" ry="32.689156" stroke-width="18" fill="white"/>
    <ellipse cx="318.4473"  cy="446.20895" rx="33.477383" ry="32.689156" stroke-width="18" fill="white"/>
    <ellipse cx="268.00021" cy="357.92654" rx="33.477383" ry="32.689156" stroke-width="18" fill="white"/>
    <ellipse cx="372.04733" cy="357.92654" rx="33.477383" ry="32.689156" stroke-width="18" fill="white"/>
    <ellipse cx="474.51797" cy="357.92654" rx="33.477383" ry="32.689156" stroke-width="18" fill="white"/>
    <ellipse cx="424.85913" cy="286.19711" rx="24.440186" ry="25.228432" stroke-width="18" fill="white"/>
    <ellipse cx="322.38849" cy="286.19711" rx="24.440186" ry="25.228432" stroke-width="18" fill="white"/>
  </g>

  <!-- BOTTOM SECTION -->
  <g transform="translate(256,318) scale(0.28) translate(-372,-620)" stroke="#005194" fill="white" stroke-linecap="round" stroke-linejoin="round">
    <path d="m 291.64696,560.50306 160.80008,1.57647" stroke="transparent" stroke-width="28" fill="none"/>
    <rect x="176.78996" y="581.22272" width="388.93762" height="191.87868" rx="95.939339"
      stroke-width="36" fill="white"/>
    <ellipse cx="285.34134" cy="676.37378" rx="52.591053" ry="53.379299" stroke-width="24" fill="white"/>
    <ellipse cx="457.17682" cy="674.7973"  rx="52.591053" ry="53.379299" stroke-width="24" fill="white"/>
  </g>

</svg>
