<?xml version="1.0" encoding="iso-8859-1"?>
<svg version="1.1" xmlns="http://www.w3.org/2000/svg" viewBox="0 0 32 32" xml:space="preserve">
<g fill="#111827">
	<path d="M27.125,11.719L22.406,7L21,8.406l2.844,2.844C22.77,11.707,22,12.766,22,14c0,1.645,1.355,3,3,3
		c0.352,0,0.684-0.074,1-0.188V24c0,0.566-0.434,1-1,1s-1-0.434-1-1v-4c0-1.094-0.906-2-2-2h-2V8c0-1.645-1.355-3-3-3H9
		C7.355,5,6,6.355,6,8v19h14v-7h2v4c0,1.645,1.355,3,3,3s3-1.355,3-3V13.813C28,13.016,27.687,12.281,27.125,11.719z M18,11v1v2v4v7
		H8v-7v-4v-2v-1V8c0-0.566,0.434-1,1-1h8c0.566,0,1,0.434,1,1V11z M25,15c-0.563,0-1-0.438-1-1s0.437-1,1-1c0.562,0,1,0.438,1,1
		S25.562,15,25,15z"/>
	<polygon points="15.34,15.56 12.91,20.44 11.09,19.56 12.66,16.44 11.56,15.91 10.66,15.44 13.09,10.56 14.91,11.44 13.34,14.56
		14.44,15.09 	"/>
</g>
</svg>
