<?xml version="1.0" encoding="iso-8859-1"?>
<!-- Generator: Adobe Illustrator 25.2.1, SVG Export Plug-In . SVG Version: 6.00 Build 0)  -->
<svg version="1.1" id="Layer_1" xmlns="http://www.w3.org/2000/svg" xmlns:xlink="http://www.w3.org/1999/xlink" x="0px" y="0px"
	 viewBox="0 0 48 48" style="enable-background:new 0 0 48 48;" xml:space="preserve">
<path style="fill:none;stroke:#000000;stroke-width:3;stroke-linecap:round;stroke-linejoin:round;stroke-miterlimit:10;" d="
	M42.5,35.5h-7c-2.209,0-4-1.791-4-4l0-18c0-2.209-1.791-4-4-4h-18c-2.209,0-4,1.791-4,4v22"/>
<polyline style="fill:none;stroke:#000000;stroke-width:3;stroke-linecap:round;stroke-linejoin:round;stroke-miterlimit:10;" points="
	38.5,40.5 43.5,35.5 38.5,30.5 "/>
<path style="fill:none;stroke:#000000;stroke-width:3;stroke-linecap:round;stroke-linejoin:round;stroke-miterlimit:10;" d="
	M23.5,29.5h-10c-1.105,0-2-0.895-2-2v-10c0-1.105,0.895-2,2-2h10c1.105,0,2,0.895,2,2v10C25.5,28.605,24.605,29.5,23.5,29.5z"/>
</svg>